
<svg width="161" height="18" viewBox="0 0 161 18" fill="none" xmlns="http://www.w3.org/2000/svg">
<path d="M6.43911 6.96939C5.90042 6.96939 5.4038 7.06198 4.94928 7.24716C4.49475 7.4155 4.09915 7.67643 3.76246 8.02995C3.44261 8.38347 3.18168 8.82116 2.97967 9.34303C2.79449 9.84805 2.7019 10.4373 2.7019 11.1106C2.7019 12.4405 3.047 13.459 3.73721 14.166C4.42742 14.8563 5.32805 15.2014 6.43911 15.2014C7.07882 15.2014 7.62593 15.1172 8.08045 14.9488C8.53498 14.7805 8.93059 14.5785 9.26727 14.3428C9.48612 14.4775 9.66288 14.6374 9.79755 14.8226C9.93223 15.0078 9.99956 15.235 9.99956 15.5044C9.99956 16.0262 9.65446 16.4639 8.96426 16.8174C8.29088 17.171 7.39867 17.3477 6.2876 17.3477C5.36172 17.3477 4.51159 17.2215 3.73721 16.969C2.97967 16.7164 2.32313 16.3292 1.7676 15.8074C1.21207 15.2855 0.774377 14.6374 0.454526 13.863C0.151509 13.0718 0 12.1544 0 11.1106C0 10.0669 0.159926 9.14943 0.479777 8.35822C0.816463 7.56701 1.26257 6.91047 1.8181 6.38861C2.39047 5.86675 3.05542 5.47956 3.81296 5.22704C4.57051 4.9577 5.37014 4.82302 6.21185 4.82302C6.76738 4.82302 7.26399 4.87352 7.70168 4.97453C8.15621 5.07554 8.5434 5.21863 8.86325 5.4038C9.1831 5.57215 9.4272 5.77416 9.59554 6.00984C9.78072 6.22868 9.87331 6.46436 9.87331 6.71688C9.87331 6.95256 9.80597 7.1714 9.6713 7.37341C9.55345 7.55859 9.40195 7.70168 9.21677 7.80269C8.86325 7.58384 8.46764 7.39025 8.02995 7.22191C7.6091 7.05356 7.07882 6.96939 6.43911 6.96939Z" fill="white"/>
<path d="M23.8058 11.0854C23.8058 12.0449 23.6627 12.9119 23.3765 13.6863C23.0903 14.4606 22.6863 15.1172 22.1644 15.6559C21.6594 16.1946 21.0365 16.6154 20.2958 16.9185C19.5551 17.2046 18.7302 17.3477 17.8212 17.3477C16.9121 17.3477 16.0873 17.2046 15.3466 16.9185C14.6058 16.6154 13.9746 16.1946 13.4527 15.6559C12.9477 15.1172 12.5521 14.4606 12.2659 13.6863C11.9797 12.9119 11.8366 12.0449 11.8366 11.0854C11.8366 10.1258 11.9797 9.25885 12.2659 8.48448C12.5521 7.7101 12.9561 7.05356 13.4779 6.51487C13.9998 5.97617 14.6311 5.56373 15.3718 5.27755C16.1125 4.97453 16.929 4.82302 17.8212 4.82302C18.7134 4.82302 19.5299 4.97453 20.2706 5.27755C21.0113 5.56373 21.6426 5.98459 22.1644 6.54012C22.6863 7.07881 23.0903 7.73535 23.3765 8.50973C23.6627 9.26727 23.8058 10.1258 23.8058 11.0854ZM17.8212 6.94414C16.8111 6.94414 16.0115 7.30608 15.4223 8.02995C14.8331 8.75383 14.5385 9.7723 14.5385 11.0854C14.5385 12.3984 14.8247 13.4169 15.3971 14.1408C15.9694 14.8478 16.7775 15.2014 17.8212 15.2014C18.8649 15.2014 19.673 14.8478 20.2453 14.1408C20.8177 13.4169 21.1039 12.3984 21.1039 11.0854C21.1039 9.78913 20.8093 8.77908 20.2201 8.0552C19.6477 7.31449 18.8481 6.94414 17.8212 6.94414Z" fill="white"/>
<path d="M34.6266 9.34303C34.6266 8.51814 34.3909 7.91211 33.9196 7.52492C33.465 7.13773 32.8422 6.94414 32.051 6.94414C31.4618 6.94414 30.9315 7.01989 30.4601 7.1714C30.0056 7.32291 29.61 7.49125 29.2733 7.67643V16.9437C29.1555 16.9942 28.9871 17.0363 28.7683 17.07C28.5663 17.1205 28.339 17.1457 28.0865 17.1457C27.5983 17.1457 27.2364 17.0531 27.0007 16.8679C26.765 16.6828 26.6472 16.3713 26.6472 15.9336V7.60068C26.6472 7.21349 26.7229 6.90205 26.8744 6.66638C27.0259 6.4307 27.2784 6.19501 27.632 5.95933C28.1033 5.67315 28.7178 5.41222 29.4753 5.17654C30.2329 4.94086 31.0914 4.82302 32.051 4.82302C33.6839 4.82302 34.9633 5.19338 35.8892 5.93408C36.8151 6.65796 37.278 7.7606 37.278 9.24202V16.9437C37.1602 16.9942 36.9918 17.0363 36.773 17.07C36.5541 17.1205 36.3185 17.1457 36.0659 17.1457C35.5777 17.1457 35.2158 17.0531 34.9801 16.8679C34.7444 16.6828 34.6266 16.3713 34.6266 15.9336V9.34303Z" fill="white"/>
<path d="M49.5652 13.7368C49.5652 14.8647 49.1443 15.7485 48.3026 16.3882C47.4609 17.0279 46.2404 17.3477 44.6412 17.3477C43.9846 17.3477 43.3786 17.2972 42.8231 17.1962C42.2675 17.0952 41.7878 16.9521 41.3837 16.7669C40.9965 16.5818 40.6935 16.3629 40.4747 16.1104C40.2558 15.8579 40.1464 15.5801 40.1464 15.2771C40.1464 15.0246 40.2053 14.7889 40.3232 14.5701C40.4578 14.3512 40.6346 14.1745 40.8534 14.0398C41.3248 14.3428 41.8635 14.6206 42.4695 14.8731C43.0756 15.1256 43.7826 15.2519 44.5907 15.2519C45.3482 15.2519 45.929 15.1256 46.333 14.8731C46.737 14.6037 46.939 14.225 46.939 13.7368C46.939 13.3159 46.7959 12.9792 46.5098 12.7267C46.2404 12.4742 45.8364 12.2806 45.2977 12.1459L43.5806 11.6914C42.4359 11.3884 41.5942 10.976 41.0555 10.4541C40.5168 9.93223 40.2474 9.21677 40.2474 8.30772C40.2474 7.81952 40.3484 7.365 40.5504 6.94414C40.7524 6.50645 41.047 6.13609 41.4342 5.83308C41.8383 5.51323 42.3349 5.26913 42.9241 5.10079C43.5133 4.91561 44.1866 4.82302 44.9442 4.82302C45.5502 4.82302 46.0973 4.87352 46.5855 4.97453C47.0905 5.0587 47.5198 5.18496 47.8733 5.3533C48.2437 5.50481 48.5299 5.6984 48.7319 5.93408C48.9339 6.16976 49.0349 6.42228 49.0349 6.69163C49.0349 6.96097 48.976 7.19665 48.8581 7.39867C48.7403 7.58384 48.5888 7.73535 48.4036 7.85319C48.1006 7.66801 47.6461 7.466 47.04 7.24716C46.4508 7.02831 45.8111 6.91889 45.1209 6.91889C44.4139 6.91889 43.8584 7.04515 43.4543 7.29766C43.0503 7.53334 42.8483 7.87003 42.8483 8.30772C42.8483 8.6444 42.9577 8.92217 43.1766 9.14101C43.4123 9.35986 43.8079 9.53662 44.3634 9.67129L45.828 10.0501C47.1074 10.3868 48.0501 10.8413 48.6561 11.4136C49.2622 11.986 49.5652 12.7604 49.5652 13.7368Z" fill="white"/>
<path d="M52.3424 5.20179C52.4603 5.16812 52.6286 5.13446 52.8475 5.10079C53.0663 5.05028 53.302 5.02503 53.5545 5.02503C54.0427 5.02503 54.3962 5.11762 54.6151 5.3028C54.8508 5.48798 54.9686 5.80783 54.9686 6.26235V12.4995C54.9686 13.4758 55.2211 14.1745 55.7261 14.5953C56.248 14.9993 56.9635 15.2014 57.8725 15.2014C58.4617 15.2014 58.9583 15.1424 59.3623 15.0246C59.7664 14.9068 60.0862 14.7805 60.3219 14.6458V5.20179C60.4566 5.16812 60.6249 5.13446 60.8269 5.10079C61.0458 5.05028 61.2815 5.02503 61.534 5.02503C62.0222 5.02503 62.3841 5.11762 62.6198 5.3028C62.8555 5.48798 62.9733 5.80783 62.9733 6.26235V14.7721C62.9733 15.1424 62.9144 15.4455 62.7965 15.6811C62.6787 15.9168 62.443 16.1441 62.0895 16.3629C61.6518 16.6154 61.071 16.8427 60.3471 17.0447C59.6401 17.2467 58.8068 17.3477 57.8473 17.3477C56.1133 17.3477 54.7582 16.969 53.7818 16.2114C52.8222 15.437 52.3424 14.2165 52.3424 12.55V5.20179Z" fill="white"/>
<path d="M68.0638 17.1457C67.5756 17.1457 67.2137 17.0531 66.978 16.8679C66.7423 16.6828 66.6245 16.3713 66.6245 15.9336V0.606034C66.7423 0.572366 66.9107 0.53028 67.1295 0.479777C67.3484 0.429275 67.584 0.404023 67.8366 0.404023C68.3248 0.404023 68.6867 0.496612 68.9224 0.681789C69.1581 0.866965 69.2759 1.1784 69.2759 1.61609V16.9437C69.1412 16.9942 68.9645 17.0363 68.7456 17.07C68.5436 17.1205 68.3163 17.1457 68.0638 17.1457Z" fill="white"/>
<path d="M75.5599 13.5348C75.5599 14.1408 75.7367 14.5701 76.0902 14.8226C76.4437 15.0751 76.9404 15.2014 77.5801 15.2014C77.8662 15.2014 78.1693 15.1593 78.4891 15.0751C78.809 14.9909 79.0867 14.8899 79.3224 14.7721C79.4403 14.9068 79.5413 15.0583 79.6254 15.2266C79.7264 15.3949 79.7769 15.597 79.7769 15.8326C79.7769 16.2703 79.5497 16.6323 79.0951 16.9185C78.6575 17.2046 77.9841 17.3477 77.075 17.3477C75.8125 17.3477 74.8024 17.07 74.0449 16.5144C73.3042 15.9421 72.9338 15.0078 72.9338 13.7115V1.91911C73.0516 1.88544 73.22 1.84335 73.4388 1.79285C73.6577 1.74235 73.8933 1.7171 74.1459 1.7171C74.6341 1.7171 74.9876 1.80969 75.2064 1.99486C75.4421 2.18004 75.5599 2.49147 75.5599 2.92916V5.42905H79.4739C79.5413 5.53006 79.6002 5.67315 79.6507 5.85833C79.718 6.04351 79.7517 6.2371 79.7517 6.43911C79.7517 7.16299 79.4403 7.52492 78.8174 7.52492H75.5599V13.5348Z" fill="white"/>
<path d="M93.5184 11.0854C93.5184 12.0449 93.3754 12.9119 93.0892 13.6863C92.803 14.4606 92.399 15.1172 91.8771 15.6559C91.3721 16.1946 90.7492 16.6154 90.0085 16.9185C89.2678 17.2046 88.4429 17.3477 87.5339 17.3477C86.6248 17.3477 85.7999 17.2046 85.0592 16.9185C84.3185 16.6154 83.6872 16.1946 83.1654 15.6559C82.6603 15.1172 82.2647 14.4606 81.9785 13.6863C81.6924 12.9119 81.5493 12.0449 81.5493 11.0854C81.5493 10.1258 81.6924 9.25885 81.9785 8.48448C82.2647 7.7101 82.6687 7.05356 83.1906 6.51487C83.7125 5.97617 84.3438 5.56373 85.0845 5.27755C85.8252 4.97453 86.6416 4.82302 87.5339 4.82302C88.4261 4.82302 89.2425 4.97453 89.9832 5.27755C90.724 5.56373 91.3552 5.98459 91.8771 6.54012C92.399 7.07881 92.803 7.73535 93.0892 8.50973C93.3754 9.26727 93.5184 10.1258 93.5184 11.0854ZM87.5339 6.94414C86.5238 6.94414 85.7242 7.30608 85.135 8.02995C84.5458 8.75383 84.2512 9.7723 84.2512 11.0854C84.2512 12.3984 84.5374 13.4169 85.1097 14.1408C85.6821 14.8478 86.4901 15.2014 87.5339 15.2014C88.5776 15.2014 89.3856 14.8478 89.958 14.1408C90.5304 13.4169 90.8165 12.3984 90.8165 11.0854C90.8165 9.78913 90.5219 8.77908 89.9327 8.0552C89.3604 7.31449 88.5607 6.94414 87.5339 6.94414Z" fill="white"/>
<path d="M98.986 16.9437C98.8681 16.9942 98.6998 17.0363 98.4809 17.07C98.2789 17.1205 98.0517 17.1457 97.7991 17.1457C97.311 17.1457 96.949 17.0531 96.7133 16.8679C96.4777 16.6828 96.3598 16.3713 96.3598 15.9336V7.65118C96.3598 7.23032 96.444 6.89364 96.6123 6.64112C96.7807 6.37177 97.05 6.11926 97.4204 5.88358C97.9086 5.58056 98.5314 5.32805 99.289 5.12604C100.047 4.92403 100.88 4.82302 101.789 4.82302C103.27 4.82302 104.011 5.24388 104.011 6.08559C104.011 6.2876 103.977 6.4812 103.91 6.66638C103.843 6.83472 103.767 6.98623 103.683 7.1209C103.514 7.08723 103.304 7.05356 103.051 7.01989C102.799 6.98623 102.53 6.96939 102.243 6.96939C101.57 6.96939 100.956 7.04515 100.4 7.19665C99.8445 7.33133 99.3732 7.50809 98.986 7.72693V16.9437Z" fill="white"/>
<path d="M125.951 9.09051C125.951 8.3498 125.74 7.81111 125.319 7.47442C124.915 7.1209 124.36 6.94414 123.653 6.94414C123.181 6.94414 122.727 7.03673 122.289 7.22191C121.868 7.39025 121.481 7.62593 121.128 7.92895C121.161 8.06362 121.186 8.20671 121.203 8.35822C121.22 8.50973 121.229 8.66124 121.229 8.81275V16.9437C121.111 16.9942 120.942 17.0363 120.723 17.07C120.505 17.1205 120.277 17.1457 120.042 17.1457C119.554 17.1457 119.192 17.0531 118.956 16.8679C118.72 16.6828 118.602 16.3713 118.602 15.9336V9.09051C118.602 8.3498 118.392 7.81111 117.971 7.47442C117.55 7.1209 116.986 6.94414 116.279 6.94414C115.808 6.94414 115.362 7.01989 114.941 7.1714C114.52 7.32291 114.167 7.49125 113.88 7.67643V16.9437C113.763 16.9942 113.594 17.0363 113.375 17.07C113.173 17.1205 112.946 17.1457 112.694 17.1457C112.205 17.1457 111.843 17.0531 111.608 16.8679C111.372 16.6828 111.254 16.3713 111.254 15.9336V7.60068C111.254 7.21349 111.33 6.90205 111.481 6.66638C111.633 6.4307 111.885 6.19501 112.239 5.95933C112.727 5.63948 113.342 5.37013 114.082 5.15129C114.823 4.93244 115.572 4.82302 116.33 4.82302C117.121 4.82302 117.828 4.93244 118.451 5.15129C119.091 5.37013 119.612 5.68999 120.016 6.11084C120.488 5.74049 121.043 5.43747 121.683 5.20179C122.34 4.94928 123.097 4.82302 123.956 4.82302C124.612 4.82302 125.227 4.90719 125.799 5.07554C126.371 5.22704 126.86 5.47956 127.264 5.83308C127.684 6.16976 128.013 6.59904 128.248 7.1209C128.484 7.64276 128.602 8.26563 128.602 8.98951V16.9437C128.467 16.9942 128.291 17.0363 128.072 17.07C127.87 17.1205 127.642 17.1457 127.39 17.1457C126.902 17.1457 126.54 17.0531 126.304 16.8679C126.068 16.6828 125.951 16.3713 125.951 15.9336V9.09051Z" fill="white"/>
<path d="M136.536 15.3024C137.125 15.3024 137.638 15.2434 138.076 15.1256C138.514 15.0078 138.825 14.8815 139.01 14.7468V11.5399L136.258 11.8177C135.484 11.9018 134.903 12.0786 134.516 12.3479C134.129 12.6005 133.935 12.9961 133.935 13.5348C133.935 14.0903 134.145 14.528 134.566 14.8478C134.987 15.1509 135.644 15.3024 136.536 15.3024ZM136.485 4.82302C138.051 4.82302 139.297 5.16812 140.223 5.85833C141.148 6.5317 141.611 7.60068 141.611 9.06526V14.9488C141.611 15.336 141.519 15.639 141.334 15.8579C141.165 16.0599 140.93 16.2535 140.627 16.4387C140.189 16.6912 139.625 16.91 138.935 17.0952C138.244 17.2804 137.445 17.373 136.536 17.373C134.903 17.373 133.623 17.0531 132.698 16.4134C131.789 15.7737 131.334 14.831 131.334 13.5853C131.334 12.4742 131.688 11.6241 132.395 11.0349C133.118 10.4457 134.154 10.0837 135.501 9.94906L139.01 9.59554V9.04001C139.01 8.2993 138.766 7.7606 138.278 7.42392C137.807 7.08723 137.142 6.91889 136.283 6.91889C135.61 6.91889 134.962 7.01148 134.339 7.19665C133.716 7.38183 133.161 7.59226 132.672 7.82794C132.504 7.69327 132.361 7.53334 132.243 7.34816C132.125 7.14615 132.066 6.92731 132.066 6.69163C132.066 6.40544 132.134 6.16976 132.268 5.98459C132.42 5.79941 132.647 5.63948 132.95 5.50481C133.421 5.26913 133.96 5.10079 134.566 4.99978C135.172 4.88194 135.812 4.82302 136.485 4.82302Z" fill="white"/>
<path d="M147.741 16.9437C147.623 16.9942 147.455 17.0363 147.236 17.07C147.034 17.1205 146.798 17.1457 146.529 17.1457C146.041 17.1457 145.679 17.0531 145.443 16.8679C145.207 16.6828 145.09 16.3713 145.09 15.9336V5.2523C145.224 5.21863 145.393 5.17654 145.595 5.12604C145.813 5.07554 146.058 5.05028 146.327 5.05028C146.815 5.05028 147.169 5.14287 147.387 5.32805C147.623 5.51323 147.741 5.83308 147.741 6.2876V16.9437ZM144.812 1.54034C144.812 1.10265 144.963 0.740709 145.266 0.454526C145.569 0.151509 145.956 0 146.428 0C146.899 0 147.278 0.151509 147.564 0.454526C147.85 0.740709 147.993 1.10265 147.993 1.54034C147.993 1.97803 147.85 2.34838 147.564 2.6514C147.278 2.93758 146.899 3.08067 146.428 3.08067C145.956 3.08067 145.569 2.93758 145.266 2.6514C144.963 2.34838 144.812 1.97803 144.812 1.54034Z" fill="white"/>
<path d="M160.163 13.7368C160.163 14.8647 159.743 15.7485 158.901 16.3882C158.059 17.0279 156.839 17.3477 155.239 17.3477C154.583 17.3477 153.977 17.2972 153.421 17.1962C152.866 17.0952 152.386 16.9521 151.982 16.7669C151.595 16.5818 151.292 16.3629 151.073 16.1104C150.854 15.8579 150.745 15.5801 150.745 15.2771C150.745 15.0246 150.804 14.7889 150.921 14.5701C151.056 14.3512 151.233 14.1745 151.452 14.0398C151.923 14.3428 152.462 14.6206 153.068 14.8731C153.674 15.1256 154.381 15.2519 155.189 15.2519C155.946 15.2519 156.527 15.1256 156.931 14.8731C157.335 14.6037 157.537 14.225 157.537 13.7368C157.537 13.3159 157.394 12.9792 157.108 12.7267C156.839 12.4742 156.435 12.2806 155.896 12.1459L154.179 11.6914C153.034 11.3884 152.192 10.976 151.654 10.4541C151.115 9.93223 150.846 9.21677 150.846 8.30772C150.846 7.81952 150.947 7.365 151.149 6.94414C151.351 6.50645 151.645 6.13609 152.032 5.83308C152.437 5.51323 152.933 5.26913 153.522 5.10079C154.112 4.91561 154.785 4.82302 155.542 4.82302C156.148 4.82302 156.696 4.87352 157.184 4.97453C157.689 5.0587 158.118 5.18496 158.472 5.3533C158.842 5.50481 159.128 5.6984 159.33 5.93408C159.532 6.16976 159.633 6.42228 159.633 6.69163C159.633 6.96097 159.574 7.19665 159.456 7.39867C159.339 7.58384 159.187 7.73535 159.002 7.85319C158.699 7.66801 158.244 7.466 157.638 7.24716C157.049 7.02831 156.409 6.91889 155.719 6.91889C155.012 6.91889 154.457 7.04515 154.053 7.29766C153.649 7.53334 153.447 7.87003 153.447 8.30772C153.447 8.6444 153.556 8.92217 153.775 9.14101C154.011 9.35986 154.406 9.53662 154.962 9.67129L156.426 10.0501C157.706 10.3868 158.648 10.8413 159.254 11.4136C159.86 11.986 160.163 12.7604 160.163 13.7368Z" fill="white"/>
</svg>
