
<svg width="92" height="16" viewBox="0 0 92 16" fill="none" xmlns="http://www.w3.org/2000/svg">
<path fill-rule="evenodd" clip-rule="evenodd" d="M12.105 7.32857C12.0798 6.75205 11.9178 6.18011 11.618 5.66314L8.97367 1.10268C8.77202 0.754816 8.63275 0.382221 8.5553 0L8.44491 0.190607C7.79027 1.31936 7.79027 2.71002 8.4448 3.83877L10.5603 7.48716C11.2148 8.61603 11.2148 10.0068 10.5603 11.1356L10.4498 11.3262C10.3724 10.9439 10.2331 10.5713 10.0314 10.2236L6.8582 4.75096C6.65666 4.40321 6.51727 4.0305 6.43994 3.64839L6.32944 3.839C5.67715 4.96395 5.67513 6.34901 6.32292 7.47575L6.32281 7.47586L8.44491 11.1356C9.09934 12.2643 9.09934 13.6551 8.44491 14.7839L8.33431 14.9746C8.25697 14.5923 8.1177 14.2197 7.91605 13.8719L5.27171 9.31142C4.91707 8.69975 4.75498 8.01119 4.78465 7.32913C1.95395 8.06548 0 9.62917 0 11.4397C0 13.9583 3.78098 16 8.44491 16C13.1087 16 16.8896 13.9583 16.8896 11.4397C16.8896 9.62906 14.9359 8.06503 12.105 7.32857ZM57.3084 13.6626C56.8484 14.0102 56.2932 14.2312 55.6112 14.2312C54.0566 14.2312 53.4062 13.094 53.4062 11.4831C53.4062 9.7141 54.2469 8.6084 56.0553 8.6084C56.547 8.6084 56.9437 8.63996 57.3084 8.70309V13.6626ZM51.6299 11.483C51.6299 14.1364 53.0256 15.6526 55.1195 15.6526C56.2299 15.6526 56.9119 15.2104 57.3562 14.5155L57.4514 15.4631H59.0535V7.56586C58.1334 7.2499 57.1976 7.12354 56.0554 7.12354C53.1208 7.12354 51.6299 8.70301 51.6299 11.483ZM50.9479 8.87665C51.0272 8.41866 51.0749 7.92899 51.1064 7.39187H48.3464V4.40674C47.8071 4.40674 47.1409 4.48576 46.6016 4.65946V12.9516C46.6016 14.8786 47.6802 15.6524 49.3775 15.6524C49.8693 15.6524 50.3768 15.5893 50.8527 15.3997C50.9479 14.9417 51.0113 14.4047 51.0589 13.9309C50.6782 14.073 50.2024 14.1678 49.6947 14.1678C48.8541 14.1678 48.3464 13.773 48.3464 12.7463V8.87665H50.9479ZM41.0015 7.12354C40.1608 7.12354 38.9394 7.29735 37.8291 7.56586V15.4631H39.574V8.73468C40.0498 8.65566 40.5416 8.60832 40.954 8.60832C42.6988 8.60832 43.1114 9.20857 43.1114 10.4562V15.4631H44.8561V10.1561C44.8561 8.24502 43.9202 7.12354 41.0015 7.12354ZM24.5514 9.36622L23.6948 9.00291C22.5843 8.52903 21.9658 8.05525 21.9658 7.23384C21.9658 6.39676 22.6003 5.85975 23.9803 5.85975C24.7099 5.85975 25.7252 6.00189 26.5818 6.31774C26.7403 5.85975 26.8513 5.37008 26.899 4.73838C25.9948 4.42253 25.0272 4.28027 23.9961 4.28027C21.4264 4.28027 20.1733 5.43332 20.1733 7.23384C20.1733 8.90811 21.1885 9.74519 22.6795 10.3928L23.4885 10.7403C24.9797 11.3878 25.5824 11.8143 25.5824 12.7303C25.5824 13.6622 24.7576 14.1361 23.2824 14.1361C22.4099 14.1361 21.2678 13.9308 20.3795 13.5202C20.205 14.0255 20.1099 14.4677 20.0781 15.1154C20.9665 15.5262 22.0291 15.7156 23.33 15.7156C26.0265 15.7156 27.4065 14.4677 27.4065 12.6513C27.4065 11.1194 26.5658 10.2192 24.5514 9.36622ZM34.1804 13.6626C33.7204 14.0102 33.1652 14.2312 32.4832 14.2312C30.9287 14.2312 30.2783 13.094 30.2783 11.4831C30.2783 9.7141 31.119 8.6084 32.9273 8.6084C33.4189 8.6084 33.8156 8.63996 34.1804 8.70309V13.6626ZM28.501 11.483C28.501 14.1364 29.8969 15.6526 31.9907 15.6526C33.1011 15.6526 33.7831 15.2104 34.2274 14.5155L34.3225 15.4631H35.9246V7.56586C35.0045 7.2499 34.0688 7.12354 32.9266 7.12354C29.992 7.12354 28.501 8.70301 28.501 11.483ZM87.2109 7.56586V15.4631H88.9558V8.70301C89.3841 8.63988 89.8123 8.60832 90.2406 8.60832C90.7324 8.60832 91.1449 8.6241 91.5572 8.67156C91.6524 8.33981 91.7158 7.708 91.7158 7.18677C91.3352 7.13932 90.7324 7.12354 90.1931 7.12354C89.2096 7.12354 87.9564 7.31313 87.2109 7.56586ZM80.0088 10.63C80.1514 9.28738 80.8019 8.57666 82.0392 8.57666C83.2447 8.57666 83.9426 9.33472 83.9426 10.63H80.0088ZM82.135 7.12354C79.3593 7.12354 78.2646 8.98741 78.2646 11.3407C78.2646 14.0416 79.6764 15.6526 82.5951 15.6526C83.531 15.6526 84.3716 15.5105 85.1648 15.1472C85.2758 14.626 85.371 14.0258 85.4344 13.5678C84.5621 13.9625 83.5945 14.1679 82.6426 14.1679C81.0882 14.1679 80.2633 13.4889 80.0413 12.0831H85.6089C85.6724 11.625 85.7041 11.2303 85.7041 10.7406C85.7041 8.75046 84.6255 7.12354 82.135 7.12354ZM64.1296 7.12354C63.2888 7.12354 62.0674 7.29735 60.957 7.56586V15.4631H62.7019V8.73468C63.1777 8.65566 63.6695 8.60832 64.0819 8.60832C65.8268 8.60832 66.2392 9.20857 66.2392 10.4562V15.4631H67.9841V10.1561C67.9841 8.24502 67.0483 7.12354 64.1296 7.12354ZM75.1069 13.631C74.6311 13.9943 74.06 14.2312 73.3621 14.2312C71.8075 14.2312 71.1572 13.094 71.1572 11.4831C71.1572 9.68242 71.9821 8.6084 73.711 8.6084C74.171 8.6084 74.647 8.67164 75.1069 8.76632V13.631ZM75.1071 7.24972C74.6946 7.17082 74.2663 7.12336 73.8064 7.12336C70.8719 7.12336 69.3809 8.70283 69.3809 11.4828C69.3809 14.1362 70.7767 15.6524 72.8705 15.6524C74.0126 15.6524 74.6946 15.1944 75.1389 14.452L75.234 15.4629H76.8362V4.40674C76.265 4.40674 75.6465 4.45408 75.1071 4.64368V7.24972Z" fill="white"/>
</svg>
